<svg width="39" height="39" viewBox="0 0 39 39" fill="none" xmlns="http://www.w3.org/2000/svg">
<path d="M19.5 0H0V39H19.5C30.2525 39 39 30.2525 39 19.5C39 8.74746 30.2525 0 19.5 0ZM1.05416 1.05416H13.2278C7.51849 3.00122 3.00122 7.51849 1.05416 13.2278V1.05416ZM1.05416 37.9466V25.7722C3.00122 31.4815 7.51849 35.9988 13.2278 37.9466H1.05416ZM19.5 37.9466C9.32917 37.9466 1.05416 29.6716 1.05416 19.5008C1.05416 9.32992 9.32917 1.05491 19.5 1.05491C29.6708 1.05491 37.9458 9.32992 37.9458 19.5008C37.9466 29.6716 29.6716 37.9466 19.5 37.9466Z" fill="white"/>
</svg>
